<svg xmlns="http://www.w3.org/2000/svg" xmlns:xlink="http://www.w3.org/1999/xlink" width="500" zoomAndPan="magnify" viewBox="0 0 375 374.999991" height="500" preserveAspectRatio="xMidYMid meet" version="1.0"><defs><g/><clipPath id="3cd41f01b6"><path d="M 31 184 L 85.671875 184 L 85.671875 193 L 31 193 Z M 31 184 " clip-rule="nonzero"/></clipPath><clipPath id="c6068be8f1"><path d="M 41 163 L 85.671875 163 L 85.671875 173 L 41 173 Z M 41 163 " clip-rule="nonzero"/></clipPath><clipPath id="dac5c6ecf4"><path d="M 64 174 L 85.671875 174 L 85.671875 183 L 64 183 Z M 64 174 " clip-rule="nonzero"/></clipPath><clipPath id="2bfac822e2"><path d="M 17.421875 184 L 28 184 L 28 193 L 17.421875 193 Z M 17.421875 184 " clip-rule="nonzero"/></clipPath><clipPath id="79032648e3"><path d="M 43 194 L 85.671875 194 L 85.671875 204 L 43 204 Z M 43 194 " clip-rule="nonzero"/></clipPath><clipPath id="e20991126a"><path d="M 47 205 L 85.671875 205 L 85.671875 214 L 47 214 Z M 47 205 " clip-rule="nonzero"/></clipPath></defs><g clip-path="url(#3cd41f01b6)"><path fill="#00bf63" d="M 109.070312 184.578125 L 65.21875 184.578125 L 63.347656 187.816406 L 59.011719 187.816406 L 57.136719 184.578125 C 55.523438 184.578125 35.289062 184.578125 33.675781 184.578125 L 31.253906 188.773438 L 33.675781 192.96875 C 35.289062 192.96875 55.523438 192.96875 57.136719 192.96875 L 59.011719 189.730469 L 63.347656 189.730469 L 65.21875 192.96875 L 109.070312 192.96875 C 109.554688 190.199219 109.554688 187.359375 109.070312 184.578125 Z M 109.070312 184.578125 " fill-opacity="1" fill-rule="nonzero"/></g><g clip-path="url(#c6068be8f1)"><path fill="#00bf63" d="M 48.863281 172.34375 L 50.738281 169.109375 L 55.074219 169.109375 L 56.945312 172.34375 L 103.179688 172.34375 C 94.492188 162.550781 84.746094 163.949219 72.992188 163.949219 L 56.945312 163.949219 L 55.074219 167.183594 L 50.738281 167.183594 L 48.863281 163.949219 L 44.019531 163.949219 L 41.597656 168.144531 L 44.019531 172.335938 L 48.863281 172.335938 Z M 48.863281 172.34375 " fill-opacity="1" fill-rule="nonzero"/></g><g clip-path="url(#dac5c6ecf4)"><path fill="#00bf63" d="M 77.828125 177.503906 L 73.492188 177.503906 L 71.621094 174.269531 L 66.777344 174.269531 L 64.355469 178.460938 L 66.777344 182.65625 L 71.621094 182.65625 L 73.492188 179.421875 L 77.828125 179.421875 L 79.699219 182.65625 L 108.664062 182.65625 C 107.882812 179.59375 106.523438 176.757812 104.71875 174.261719 L 79.699219 174.261719 Z M 77.828125 177.503906 " fill-opacity="1" fill-rule="nonzero"/></g><g clip-path="url(#2bfac822e2)"><path fill="#00bf63" d="M 19.84375 184.578125 L 17.421875 188.773438 L 19.84375 192.976562 L 24.695312 192.976562 L 27.117188 188.773438 L 24.695312 184.578125 Z M 19.84375 184.578125 " fill-opacity="1" fill-rule="nonzero"/></g><path fill="#00bf63" d="M 50.519531 178.460938 L 52.941406 182.65625 L 57.796875 182.65625 L 60.21875 178.460938 L 57.796875 174.269531 L 52.941406 174.269531 Z M 50.519531 178.460938 " fill-opacity="1" fill-rule="nonzero"/><path fill="#00bf63" d="M 36.398438 205.203125 L 33.96875 209.40625 L 36.398438 213.601562 L 41.242188 213.601562 L 43.664062 209.40625 L 41.242188 205.203125 Z M 36.398438 205.203125 " fill-opacity="1" fill-rule="nonzero"/><g clip-path="url(#79032648e3)"><path fill="#00bf63" d="M 57.136719 198.128906 L 52.800781 198.128906 L 50.929688 194.890625 L 46.085938 194.890625 L 43.664062 199.085938 L 46.085938 203.28125 L 50.929688 203.28125 L 52.800781 200.042969 L 57.136719 200.042969 L 59.011719 203.28125 L 104.710938 203.28125 C 106.515625 200.785156 107.875 197.945312 108.65625 194.882812 C 93.484375 194.882812 74.175781 194.882812 59.003906 194.882812 Z M 57.136719 198.128906 " fill-opacity="1" fill-rule="nonzero"/></g><g clip-path="url(#e20991126a)"><path fill="#00bf63" d="M 69.554688 208.449219 L 65.21875 208.449219 L 63.347656 205.210938 C 58.976562 205.210938 54.597656 205.210938 50.222656 205.210938 L 47.800781 209.40625 L 50.222656 213.601562 C 54.597656 213.601562 58.96875 213.601562 63.347656 213.601562 L 65.21875 210.363281 L 69.554688 210.363281 L 71.429688 213.601562 C 83.835938 213.601562 94.265625 215.257812 103.179688 205.203125 L 71.429688 205.203125 Z M 69.554688 208.449219 " fill-opacity="1" fill-rule="nonzero"/></g><g fill="#ffffff" fill-opacity="1"><g transform="translate(112.041751, 197.904229)"><g><path d="M 18.03125 -0.296875 C 13.5625 0.0976562 9.851562 0.296875 6.90625 0.296875 C 4.945312 0.296875 3.503906 -0.160156 2.578125 -1.078125 C 1.660156 -2.003906 1.203125 -3.445312 1.203125 -5.40625 L 1.203125 -15.03125 C 1.203125 -17.125 1.675781 -18.644531 2.625 -19.59375 C 3.582031 -20.550781 5.113281 -21.03125 7.21875 -21.03125 L 18.03125 -21.03125 L 18.03125 -16.828125 L 8.40625 -16.828125 C 7.207031 -16.828125 6.609375 -16.226562 6.609375 -15.03125 L 6.609375 -5.40625 C 6.609375 -4.945312 6.742188 -4.582031 7.015625 -4.3125 C 7.285156 -4.039062 7.628906 -3.90625 8.046875 -3.90625 C 8.472656 -3.90625 8.9375 -3.910156 9.4375 -3.921875 C 9.9375 -3.929688 10.457031 -3.945312 11 -3.96875 C 11.539062 -3.988281 12.085938 -4.007812 12.640625 -4.03125 C 13.191406 -4.050781 13.898438 -4.085938 14.765625 -4.140625 C 15.640625 -4.203125 16.726562 -4.273438 18.03125 -4.359375 Z M 18.03125 -0.296875 "/></g></g></g><g fill="#ffffff" fill-opacity="1"><g transform="translate(136.681514, 197.904229)"><g><path d="M 15.328125 -15.328125 C 15.328125 -16.523438 14.722656 -17.125 13.515625 -17.125 L 8.40625 -17.125 C 7.207031 -17.125 6.609375 -16.523438 6.609375 -15.328125 L 6.609375 -5.703125 C 6.609375 -4.503906 7.207031 -3.90625 8.40625 -3.90625 L 13.515625 -3.90625 C 14.722656 -3.90625 15.328125 -4.503906 15.328125 -5.703125 Z M 20.734375 -5.703125 C 20.734375 -3.597656 20.253906 -2.070312 19.296875 -1.125 C 18.347656 -0.175781 16.820312 0.296875 14.71875 0.296875 L 7.21875 0.296875 C 5.113281 0.296875 3.582031 -0.175781 2.625 -1.125 C 1.675781 -2.070312 1.203125 -3.597656 1.203125 -5.703125 L 1.203125 -15.328125 C 1.203125 -17.429688 1.675781 -18.957031 2.625 -19.90625 C 3.582031 -20.851562 5.113281 -21.328125 7.21875 -21.328125 L 14.71875 -21.328125 C 16.820312 -21.328125 18.347656 -20.851562 19.296875 -19.90625 C 20.253906 -18.957031 20.734375 -17.429688 20.734375 -15.328125 Z M 20.734375 -5.703125 "/></g></g></g><g fill="#ffffff" fill-opacity="1"><g transform="translate(164.626434, 197.904229)"><g><path d="M 20.125 0 L 14.421875 0 L 7.21875 -12.625 L 7.21875 0 L 1.796875 0 L 1.796875 -21.03125 L 7.515625 -21.03125 L 14.71875 -8.40625 L 14.71875 -21.03125 L 20.125 -21.03125 Z M 20.125 0 "/></g></g></g><g fill="#ffffff" fill-opacity="1"><g transform="translate(192.571353, 197.904229)"><g><path d="M 20.125 0 L 14.421875 0 L 7.21875 -12.625 L 7.21875 0 L 1.796875 0 L 1.796875 -21.03125 L 7.515625 -21.03125 L 14.71875 -8.40625 L 14.71875 -21.03125 L 20.125 -21.03125 Z M 20.125 0 "/></g></g></g><g fill="#ffffff" fill-opacity="1"><g transform="translate(220.516273, 197.904229)"><g><path d="M 18.484375 0 L 1.796875 0 L 1.796875 -21.03125 L 18.484375 -21.03125 L 18.484375 -16.828125 L 7.21875 -16.828125 L 7.21875 -12.765625 L 16.078125 -12.765625 L 16.078125 -8.5625 L 7.21875 -8.5625 L 7.21875 -4.203125 L 18.484375 -4.203125 Z M 18.484375 0 "/></g></g></g><g fill="#ffffff" fill-opacity="1"><g transform="translate(245.606744, 197.904229)"><g><path d="M 18.03125 -0.296875 C 13.5625 0.0976562 9.851562 0.296875 6.90625 0.296875 C 4.945312 0.296875 3.503906 -0.160156 2.578125 -1.078125 C 1.660156 -2.003906 1.203125 -3.445312 1.203125 -5.40625 L 1.203125 -15.03125 C 1.203125 -17.125 1.675781 -18.644531 2.625 -19.59375 C 3.582031 -20.550781 5.113281 -21.03125 7.21875 -21.03125 L 18.03125 -21.03125 L 18.03125 -16.828125 L 8.40625 -16.828125 C 7.207031 -16.828125 6.609375 -16.226562 6.609375 -15.03125 L 6.609375 -5.40625 C 6.609375 -4.945312 6.742188 -4.582031 7.015625 -4.3125 C 7.285156 -4.039062 7.628906 -3.90625 8.046875 -3.90625 C 8.472656 -3.90625 8.9375 -3.910156 9.4375 -3.921875 C 9.9375 -3.929688 10.457031 -3.945312 11 -3.96875 C 11.539062 -3.988281 12.085938 -4.007812 12.640625 -4.03125 C 13.191406 -4.050781 13.898438 -4.085938 14.765625 -4.140625 C 15.640625 -4.203125 16.726562 -4.273438 18.03125 -4.359375 Z M 18.03125 -0.296875 "/></g></g></g><g fill="#ffffff" fill-opacity="1"><g transform="translate(270.246513, 197.904229)"><g><path d="M 12.015625 0 L 6.609375 0 L 6.609375 -16.828125 L 0.296875 -16.828125 L 0.296875 -21.03125 L 18.328125 -21.03125 L 18.328125 -16.828125 L 12.015625 -16.828125 Z M 12.015625 0 "/></g></g></g><g fill="#ffffff" fill-opacity="1"><g transform="translate(294.886281, 197.904229)"><g><path d="M 11.71875 0 L 0.90625 0 L 0.90625 -4.203125 L 3.609375 -4.203125 L 3.609375 -16.828125 L 0.90625 -16.828125 L 0.90625 -21.03125 L 11.71875 -21.03125 L 11.71875 -16.828125 L 9.015625 -16.828125 L 9.015625 -4.203125 L 11.71875 -4.203125 Z M 11.71875 0 "/></g></g></g><g fill="#ffffff" fill-opacity="1"><g transform="translate(313.516689, 197.904229)"><g><path d="M 7.21875 0 L 1.796875 0 L 1.796875 -21.03125 L 18.484375 -21.03125 L 18.484375 -16.828125 L 7.21875 -16.828125 L 7.21875 -11.875 L 16.078125 -11.875 L 16.078125 -7.65625 L 7.21875 -7.65625 Z M 7.21875 0 "/></g></g></g><g fill="#ffffff" fill-opacity="1"><g transform="translate(338.306697, 197.904229)"><g><path d="M -0.59375 -21.03125 L 5.109375 -21.03125 L 10.0625 -10.8125 L 15.03125 -21.03125 L 20.734375 -21.03125 L 12.765625 -5.5625 L 12.765625 0 L 7.359375 0 L 7.359375 -5.5625 Z M -0.59375 -21.03125 "/></g></g></g><path stroke-linecap="round" transform="matrix(0, 0.75, -0.75, 0, 96.227458, 146.050771)" fill="none" stroke-linejoin="miter" d="M 1.500013 1.501194 L 109.031271 1.501194 " stroke="#00bf63" stroke-width="3" stroke-opacity="1" stroke-miterlimit="4"/></svg>